<svg xmlns="http://www.w3.org/2000/svg" viewBox="0 0 288 38">
  <g id="omegado-wordmark">
    <path d="M 11.240 2.110 C -1.123 8.230, -2.205 25.867, 9.261 34.361 C 11.143 35.756, 14.008 36.529, 18.261 36.793 C 23.950 37.145, 24.871 36.908, 28.714 34.109 C 34.227 30.093, 36.389 25.858, 36.432 18.986 C 36.479 11.509, 32.740 5.021, 26.698 2.096 C 21.206 -0.563, 16.632 -0.559, 11.240 2.110 M 125.168 2.146 C 113.630 7.857, 111.718 24.277, 121.583 32.939 C 125.734 36.583, 128.549 37.394, 134.926 36.781 C 142.950 36.010, 148.604 30.309, 150.331 21.250 L 150.950 18 143.475 18 L 136 18 136 21 C 136 23.669, 136.332 24, 139.008 24 C 141.730 24, 141.902 24.184, 140.812 25.929 C 138.303 29.947, 131.234 31.253, 127.217 28.439 C 124.553 26.573, 122 21.930, 122 18.951 C 122 15.281, 125.131 9.983, 128.256 8.367 C 131.623 6.626, 137.082 7.189, 138.978 9.473 C 139.992 10.695, 140.634 10.665, 143.578 9.261 L 147 7.629 144.750 5.186 C 139.792 -0.198, 132.264 -1.367, 125.168 2.146 M 46.531 2.186 C 46.044 3.593, 40 35.180, 40 36.319 C 40 36.694, 41.543 37, 43.429 37 C 46.803 37, 46.877 36.907, 48.016 31.250 C 50.025 21.277, 50.812 17.855, 51.182 17.485 C 51.379 17.288, 53.084 21.373, 54.970 26.563 C 58.132 35.263, 58.609 36, 61.067 36 C 63.505 36, 64.014 35.248, 66.993 27.250 C 68.786 22.438, 70.574 18.144, 70.966 17.710 C 71.359 17.275, 72.474 21.438, 73.444 26.960 L 75.208 37 78.604 37 C 81.134 37, 82 36.566, 82 35.299 C 82 34.364, 80.551 26.264, 78.781 17.299 L 75.562 1 72.418 1 C 69.339 1, 69.198 1.211, 65.441 11.469 C 63.331 17.228, 61.357 21.697, 61.053 21.401 C 60.749 21.104, 58.862 16.506, 56.860 11.181 C 53.407 1.997, 53.061 1.484, 50.103 1.186 C 48.189 0.993, 46.811 1.379, 46.531 2.186 M 88 19.033 L 88 37.066 99.250 36.783 L 110.500 36.500 110.813 33.250 L 111.127 30 103.063 30 L 95 30 95 25.500 L 95 21 101 21 L 107 21 107 17.500 L 107 14 101 14 C 95.019 14, 95 13.991, 95 11.042 L 95 8.084 102.750 7.792 L 110.500 7.500 110.813 4.250 L 111.127 1 99.563 1 L 88 1 88 19.033 M 158.589 17.724 C 155.339 26.951, 152.478 35.063, 152.232 35.750 C 151.928 36.604, 152.946 37, 155.445 37 C 158.612 37, 159.245 36.596, 160.150 34 C 161.186 31.027, 161.263 31, 168.685 31 C 176.088 31, 176.187 31.035, 177.306 34 C 178.289 36.605, 178.937 37, 182.219 37 C 184.299 37, 185.991 36.888, 185.980 36.750 C 185.969 36.612, 183.091 28.625, 179.585 19 L 173.210 1.500 168.855 1.224 L 164.500 0.948 158.589 17.724 M 12.645 10.007 C 8.488 13.657, 7.312 18.418, 9.359 23.317 C 11.227 27.786, 14.526 30, 19.321 30 C 26.469 30, 31.533 21.606, 28.609 14.606 C 26.853 10.405, 22.507 7, 18.900 7 C 17.180 7, 14.726 8.179, 12.645 10.007 M 166.389 17.023 C 165.243 20.295, 164.536 23.203, 164.819 23.486 C 165.672 24.339, 173 24.063, 173 23.178 C 173 21.907, 169.813 12.589, 169.104 11.787 C 168.757 11.394, 167.536 13.751, 166.389 17.023" fill="currentColor" fill-rule="evenodd"/>
    <path d="M 200 3 L 200 6 210.250 6.002 C 221.567 6.003, 225.795 7.368, 229.298 12.148 C 231.709 15.439, 231.766 21.902, 229.415 25.489 C 226.459 30, 223.128 31, 211.050 31 L 200 31 200 34.077 L 200 37.155 213.332 36.827 C 226.263 36.510, 226.778 36.413, 230.451 33.608 C 232.562 31.997, 235.123 28.715, 236.239 26.194 C 240.207 17.223, 236.269 6.245, 227.573 2.035 C 224.080 0.344, 221.392 -0, 211.684 -0 L 200 0 200 3 M 253.459 1.880 C 248.407 4.174, 244.380 8.876, 242.965 14.129 C 241.664 18.962, 242.394 23.103, 245.500 28.511 C 251.832 39.534, 269.398 39.943, 276.455 29.230 C 281.610 21.404, 280.507 11.696, 273.738 5.318 C 267.976 -0.110, 260.594 -1.361, 253.459 1.880 M 256.415 7.421 C 251.683 9.482, 249 13.545, 249 18.650 C 249 30.686, 266.055 35.529, 271.483 25.033 C 275.044 18.147, 272.318 10.284, 265.364 7.379 C 261.348 5.701, 260.357 5.705, 256.415 7.421 M 281.046 30.445 C 279.135 32.747, 280.156 36.451, 282.805 36.827 C 287.422 37.481, 289.989 32.135, 286.066 30.035 C 283.473 28.647, 282.470 28.729, 281.046 30.445" fill="#dd1e26" fill-rule="evenodd"/>
  </g>
</svg>
